<svg xmlns="http://www.w3.org/2000/svg" xmlns:xlink="http://www.w3.org/1999/xlink" viewBox="0 0 236.63 146.79"><defs><style>.cls-1{fill:#3b3b6b;}.cls-2{fill:url(#linear-gradient);}.cls-3{fill:url(#linear-gradient-2);}.cls-4{fill:url(#linear-gradient-3);}.cls-5{fill:url(#linear-gradient-4);}.cls-6{fill:url(#linear-gradient-5);}.cls-7{fill:url(#linear-gradient-6);}.cls-8{fill:url(#linear-gradient-7);}.cls-9{fill:url(#linear-gradient-8);}.cls-10{fill:#fff;}.cls-11{fill:url(#linear-gradient-9);}.cls-12{fill:url(#linear-gradient-10);}.cls-13{fill:url(#linear-gradient-11);}</style><linearGradient id="linear-gradient" x1="231.23" y1="72.45" x2="7.76" y2="103.84" gradientTransform="translate(-1.75 1.16) rotate(-0.03)" gradientUnits="userSpaceOnUse"><stop offset="0" stop-color="#2d5fea"/><stop offset="0.54" stop-color="#ad83ff"/><stop offset="0.59" stop-color="#bb8eeb"/><stop offset="0.72" stop-color="#d8a4c1"/><stop offset="0.83" stop-color="#edb5a3"/><stop offset="0.93" stop-color="#fabe91"/><stop offset="1" stop-color="#ffc28a"/></linearGradient><linearGradient id="linear-gradient-2" x1="233.43" y1="88.12" x2="9.96" y2="119.5" xlink:href="#linear-gradient"/><linearGradient id="linear-gradient-3" x1="232.31" y1="80.16" x2="8.84" y2="111.54" xlink:href="#linear-gradient"/><linearGradient id="linear-gradient-4" x1="232.84" y1="83.94" x2="9.37" y2="115.32" xlink:href="#linear-gradient"/><linearGradient id="linear-gradient-5" x1="234.36" y1="94.76" x2="10.89" y2="126.14" xlink:href="#linear-gradient"/><linearGradient id="linear-gradient-6" x1="231.9" y1="77.19" x2="8.42" y2="108.58" xlink:href="#linear-gradient"/><linearGradient id="linear-gradient-7" x1="234.08" y1="92.76" x2="10.61" y2="124.15" xlink:href="#linear-gradient"/><linearGradient id="linear-gradient-8" x1="234.91" y1="98.63" x2="11.43" y2="130.02" xlink:href="#linear-gradient"/><linearGradient id="linear-gradient-9" x1="-976" y1="1370.68" x2="-907.4" y2="1357.21" gradientTransform="translate(976.19 -1376.86) rotate(-3.13)" xlink:href="#linear-gradient"/><linearGradient id="linear-gradient-10" x1="-976.29" y1="1369.19" x2="-907.69" y2="1355.72" gradientTransform="translate(976.19 -1376.86) rotate(-3.13)" xlink:href="#linear-gradient"/><linearGradient id="linear-gradient-11" x1="-934.58" y1="1317.61" x2="-947.93" y2="1395.52" gradientTransform="translate(976.19 -1376.86) rotate(-3.13)" gradientUnits="userSpaceOnUse"><stop offset="0" stop-color="#3b3b6b"/><stop offset="0.54" stop-color="#ad83ff"/><stop offset="0.59" stop-color="#bb8eeb"/><stop offset="0.72" stop-color="#d8a4c1"/><stop offset="0.83" stop-color="#edb5a3"/><stop offset="0.93" stop-color="#fabe91"/><stop offset="1" stop-color="#ffc28a"/></linearGradient></defs><g id="Layer_2" data-name="Layer 2"><g id="Layer_1-2" data-name="Layer 1"><path class="cls-1" d="M6.38,142.11v-6L0,126.93H2.09l5.14,7.39,5.13-7.39h2.09L8.1,136.1v6Z"/><path class="cls-1" d="M19.57,142.29a5.66,5.66,0,0,1-3-.79,5.35,5.35,0,0,1-2-2.14,6.82,6.82,0,0,1,0-6,5.25,5.25,0,0,1,2-2.13,5.6,5.6,0,0,1,3-.79,5.62,5.62,0,0,1,3,.78,5.35,5.35,0,0,1,2,2.14,6.68,6.68,0,0,1,.69,3,6.47,6.47,0,0,1-.69,3,5.35,5.35,0,0,1-2,2.15A5.71,5.71,0,0,1,19.57,142.29Zm0-1.56a3.77,3.77,0,0,0,2.17-.6,3.85,3.85,0,0,0,1.34-1.59,5.24,5.24,0,0,0,.46-2.17,5.35,5.35,0,0,0-.46-2.18,3.84,3.84,0,0,0-1.35-1.58,3.76,3.76,0,0,0-2.16-.6,3.86,3.86,0,0,0-2.16.6,3.73,3.73,0,0,0-1.35,1.59,5,5,0,0,0-.46,2.17,5.06,5.06,0,0,0,.46,2.17,3.75,3.75,0,0,0,1.35,1.59A3.8,3.8,0,0,0,19.57,140.73Z"/><path class="cls-1" d="M32.46,142.28a4.69,4.69,0,0,1-2.22-.56,4.22,4.22,0,0,1-1.71-1.67,5.3,5.3,0,0,1-.66-2.74v-6.68h1.72v6.63a3.46,3.46,0,0,0,.91,2.51,3,3,0,0,0,2.3.95,3.43,3.43,0,0,0,1.75-.45,3.39,3.39,0,0,0,1.71-3v-6.6H38v11.46H36.27v-1.79a6,6,0,0,1-1.52,1.4A4.18,4.18,0,0,1,32.46,142.28Z"/><path class="cls-1" d="M41.43,142.09V130.63h1.72v2.83a4.49,4.49,0,0,1,.36-.8,4.3,4.3,0,0,1,.76-1,4.16,4.16,0,0,1,1.28-.86,4.25,4.25,0,0,1,1.82-.36h.11v1.72h-.21a3.54,3.54,0,0,0-2.21.7,4.46,4.46,0,0,0-1.42,1.81,5.8,5.8,0,0,0-.5,2.38v5Z"/><path class="cls-1" d="M55.51,142.08V126.9h6.4a6.81,6.81,0,0,1,2.6.51,6.94,6.94,0,0,1,3.8,3.89,9.18,9.18,0,0,1,0,6.37,7.08,7.08,0,0,1-1.56,2.39,6.81,6.81,0,0,1-4.83,2Zm1.72-1.62h4.61a4.85,4.85,0,0,0,2.82-.82,5.58,5.58,0,0,0,1.84-2.18,6.68,6.68,0,0,0,.65-3,6.82,6.82,0,0,0-.65-3,5.37,5.37,0,0,0-1.85-2.17,4.9,4.9,0,0,0-2.82-.81H57.22Z"/><path class="cls-1" d="M71.64,128.68v-2.25H73.5v2.25Zm.08,13.4V130.61h1.72v11.46Z"/><path class="cls-1" d="M82.14,146.79a6.06,6.06,0,0,1-3.51-.92,4.57,4.57,0,0,1-1.84-2.42h1.9a2.59,2.59,0,0,0,1.2,1.31,4.31,4.31,0,0,0,2.15.47,3.86,3.86,0,0,0,2.88-.93,3.66,3.66,0,0,0,.9-2.69V140a4.85,4.85,0,0,1-1.66,1.48,5,5,0,0,1-2.44.56,5.46,5.46,0,0,1-2.92-.77,5.21,5.21,0,0,1-1.94-2.09,6.76,6.76,0,0,1,0-5.93,5.28,5.28,0,0,1,1.94-2.09,5.48,5.48,0,0,1,2.92-.77,5.18,5.18,0,0,1,2.45.54,4.61,4.61,0,0,1,1.66,1.47V130.6h1.72v11.12a4.82,4.82,0,0,1-1.4,3.76A5.64,5.64,0,0,1,82.14,146.79ZM82,140.51a3.78,3.78,0,0,0,2.14-.58,3.67,3.67,0,0,0,1.35-1.54,4.81,4.81,0,0,0,.47-2.15,4.75,4.75,0,0,0-.47-2.15,3.67,3.67,0,0,0-1.35-1.54,3.9,3.9,0,0,0-2.15-.57,4.07,4.07,0,0,0-2.18.57,3.82,3.82,0,0,0-1.39,1.54,5.06,5.06,0,0,0,0,4.3,3.74,3.74,0,0,0,1.4,1.55A4,4,0,0,0,82,140.51Z"/><path class="cls-1" d="M90.91,128.67v-2.25h1.85v2.25ZM91,142.06V130.6H92.7v11.46Z"/><path class="cls-1" d="M97.38,142.06v-9.95H95v-1.52h2.34v-4.1h1.72v4.1h2.63v1.51H99.1v9.95Z"/><path class="cls-1" d="M108.69,142.24a5.44,5.44,0,0,1-2.93-.79,5.29,5.29,0,0,1-1.93-2.15,6.85,6.85,0,0,1,0-6,5.39,5.39,0,0,1,1.94-2.13,5.33,5.33,0,0,1,2.92-.8,5.14,5.14,0,0,1,2.44.55,4.71,4.71,0,0,1,1.67,1.49v-1.86h1.72v11.47h-1.72v-1.83a4.6,4.6,0,0,1-1.66,1.46A5,5,0,0,1,108.69,142.24Zm.23-1.56a3.74,3.74,0,0,0,2.16-.6,3.84,3.84,0,0,0,1.35-1.6,5.16,5.16,0,0,0,.45-2.16,5,5,0,0,0-.46-2.18,3.69,3.69,0,0,0-1.34-1.58,3.77,3.77,0,0,0-2.17-.6,3.81,3.81,0,0,0-3.57,2.18,5.17,5.17,0,0,0,0,4.35,3.85,3.85,0,0,0,1.4,1.59A3.89,3.89,0,0,0,108.92,140.68Z"/><path class="cls-1" d="M118,142.05V126h1.72v16.06Z"/><path class="cls-1" d="M128.82,142V126.86h2l9.39,12.77V126.85h1.72V142h-2l-9.38-12.82V142Z"/><path class="cls-1" d="M150.7,142.21a5.66,5.66,0,0,1-3-.79,5.28,5.28,0,0,1-2-2.14,6.8,6.8,0,0,1,0-6,5.28,5.28,0,0,1,2-2.14,6.21,6.21,0,0,1,6.06,0,5.39,5.39,0,0,1,2,2.13,6.8,6.8,0,0,1,0,6,5.29,5.29,0,0,1-2,2.15A5.62,5.62,0,0,1,150.7,142.21Zm0-1.56a3.62,3.62,0,0,0,3.51-2.19,5.37,5.37,0,0,0,0-4.35,3.91,3.91,0,0,0-1.35-1.58,4.22,4.22,0,0,0-4.32,0,3.64,3.64,0,0,0-1.35,1.58,5.35,5.35,0,0,0,0,4.34,3.79,3.79,0,0,0,1.36,1.6A3.74,3.74,0,0,0,150.7,140.65Z"/><path class="cls-1" d="M159.12,142V130.56h1.72v2.82a4.16,4.16,0,0,1,.36-.79,4,4,0,0,1,.77-1,4.11,4.11,0,0,1,1.27-.86,4.25,4.25,0,0,1,1.82-.36h.12v1.72H165a3.54,3.54,0,0,0-2.21.7,4.54,4.54,0,0,0-1.42,1.81,5.83,5.83,0,0,0-.49,2.38v5Z"/><path class="cls-1" d="M168.73,142v-10h-2.34v-1.52h2.34v-4.1h1.72v4.1h2.64v1.51h-2.64v10Z"/><path class="cls-1" d="M175.42,142V126h1.72v6.38a5.6,5.6,0,0,1,1.51-1.4,4.12,4.12,0,0,1,2.29-.58,4.71,4.71,0,0,1,2.24.56,4.39,4.39,0,0,1,1.7,1.67,5.43,5.43,0,0,1,.65,2.75V142h-1.72v-6.63a3.55,3.55,0,0,0-.89-2.51,3.06,3.06,0,0,0-2.32-1,3.51,3.51,0,0,0-1.74.44,3.28,3.28,0,0,0-1.25,1.23,3.5,3.5,0,0,0-.47,1.82V142Z"/><path class="cls-1" d="M200,142.18a9.36,9.36,0,0,1-3.65-.6,4.66,4.66,0,0,1-2.1-1.69,5.13,5.13,0,0,1-.81-2.43h1.79a2.65,2.65,0,0,0,.73,1.78,4,4,0,0,0,1.76,1,8.53,8.53,0,0,0,2.39.32,6,6,0,0,0,3-.68,2.2,2.2,0,0,0,1.13-2,1.67,1.67,0,0,0-.57-1.3,4.45,4.45,0,0,0-1.49-.81,20.79,20.79,0,0,0-2-.58c-.73-.18-1.47-.36-2.21-.56a10.92,10.92,0,0,1-2-.76,4.24,4.24,0,0,1-1.5-1.18,2.94,2.94,0,0,1-.56-1.84,3.74,3.74,0,0,1,1.43-3,6.72,6.72,0,0,1,4.28-1.18,8,8,0,0,1,3.33.61,4.72,4.72,0,0,1,2,1.59,4.37,4.37,0,0,1,.72,2.14h-1.76a2.88,2.88,0,0,0-1.15-1.94,5,5,0,0,0-3.1-.79,7.45,7.45,0,0,0-2.09.25,3.11,3.11,0,0,0-1.22.66,2.09,2.09,0,0,0-.58.84,2.77,2.77,0,0,0-.14.82,1.51,1.51,0,0,0,.56,1.23,4.62,4.62,0,0,0,1.49.78c.62.2,1.3.39,2.05.56s1.5.35,2.24.56a10.29,10.29,0,0,1,2,.78,4.16,4.16,0,0,1,1.49,1.2,3,3,0,0,1,.56,1.88,3.72,3.72,0,0,1-1.6,3.25A7.56,7.56,0,0,1,200,142.18Z"/><path class="cls-1" d="M210,142V132h-2.34v-1.51H210v-4.11h1.72v4.11h2.64V132h-2.64v10Z"/><path class="cls-1" d="M221.31,142.17a5.32,5.32,0,0,1-2.92-.79,5.42,5.42,0,0,1-1.94-2.14,6.82,6.82,0,0,1,0-6,5.24,5.24,0,0,1,4.86-2.92,5.05,5.05,0,0,1,2.44.55,4.58,4.58,0,0,1,1.66,1.49v-1.86h1.72V142h-1.72v-1.84a4.81,4.81,0,0,1-1.66,1.47A5.07,5.07,0,0,1,221.31,142.17Zm.23-1.56a3.66,3.66,0,0,0,3.51-2.19,5.09,5.09,0,0,0,.46-2.17,5.22,5.22,0,0,0-.46-2.18,3.91,3.91,0,0,0-1.35-1.58,3.73,3.73,0,0,0-2.16-.59,4,4,0,0,0-2.18.59,3.91,3.91,0,0,0-1.4,1.59,5.15,5.15,0,0,0,0,4.34,3.88,3.88,0,0,0,1.4,1.6A4,4,0,0,0,221.54,140.61Z"/><path class="cls-1" d="M230.58,142V130.52h1.72v2.83a4.49,4.49,0,0,1,.36-.8,4.45,4.45,0,0,1,2-1.85,4.25,4.25,0,0,1,1.82-.36h.12v1.72h-.21a3.54,3.54,0,0,0-2.21.7,4.54,4.54,0,0,0-1.42,1.81,5.8,5.8,0,0,0-.49,2.38v5Z"/><path class="cls-2" d="M11.05,116.32V88H21l4.91,24.68h.73L31.47,88h9.91l0,28.33H36.22V91.91h-.73l-4.84,24.4H21.82L17,91.92h-.73v24.4Z"/><path class="cls-3" d="M155.13,87.91v28.33h-9.91l-4.91-24.67h-.73l-4.88,24.68H124.8l0-28.33H130v24.4h.73l4.84-24.4h8.82l4.87,24.4H150V87.92Z"/><path class="cls-4" d="M72,116.29V88h12.3a10.69,10.69,0,0,1,4.65.92,7,7,0,0,1,4.17,6.64V96a6.58,6.58,0,0,1-1.21,4.13,7.17,7.17,0,0,1-3,2.31v.73a3.36,3.36,0,0,1,2.51,1.11,4.06,4.06,0,0,1,.89,2.73v9.27H87v-8.5a2.38,2.38,0,0,0-.51-1.58,2.07,2.07,0,0,0-1.68-.6H77.34v10.68Zm5.34-15.54h6.39a4.08,4.08,0,0,0,3-1A3.6,3.6,0,0,0,87.77,97v-.41a3.66,3.66,0,0,0-1-2.73,4.09,4.09,0,0,0-3-1H77.33Z"/><path class="cls-5" d="M98.39,116.27l0-28.32h5.34V99.19h.73l9.17-11.25h6.84l-11.81,14,12.23,14.36h-7l-9.39-11.48h-.73v11.49Z"/><path class="cls-6" d="M187.22,116.22,180,87.9h5.51l6,24.88h.56l6-24.89h5.5l-7.18,28.32Z"/><path class="cls-7" d="M61.59,88l7.22,28.32h-5.5l-6-24.88h-.57l-6,24.89H45.26L52.45,88Z"/><path class="cls-8" d="M174.66,87.9l7.22,28.32h-5.51l-6-24.88h-.57l-6,24.88h-5.5l7.18-28.33Z"/><path class="cls-9" d="M207.11,116.21l0-28.33H225.3v4.86H212.43v6.75h11.73v4.85H212.44v7h13.11v4.86Z"/><path class="cls-1" d="M126.77,9.19,116.1,14.41l-8.9,4.34L100.52,22h0l9.29,5.36L114.69,25l8.52-4.16L136,14.58ZM104.94,23.76Z"/><polygon class="cls-1" points="104.94 23.75 104.94 23.75 104.94 23.75 104.94 23.75"/><polygon class="cls-10" points="104.94 23.75 104.94 23.75 104.94 23.75 104.94 23.75"/><polygon class="cls-11" points="146.29 28.25 134.63 33.94 126.57 37.88 120.07 41.05 110.78 35.7 110.78 35.69 120.61 30.88 128.9 26.84 137.03 22.86 146.29 28.25"/><polygon class="cls-1" points="156.41 41.64 142.93 48.23 135.02 52.09 130.2 54.44 120.9 49.09 120.89 49.08 130.95 44.18 138.88 40.3 147.15 36.26 156.41 41.64"/><rect class="cls-10" x="116.47" y="47.35" height="0.01" transform="translate(-8.96 55.97) rotate(-26.05)"/><polygon class="cls-1" points="100.52 22.02 100.52 22.02 89.38 27.47 81.44 31.34 74.31 34.83 65.02 29.47 77.24 23.49 85.14 19.63 91.27 16.63 100.52 22.02"/><polygon class="cls-12" points="110.78 35.7 100.15 40.89 91.83 44.95 84.57 48.5 75.27 43.13 85.98 37.9 94.05 33.96 101.53 30.31 110.78 35.69 110.78 35.7"/><polygon class="cls-1" points="120.9 49.09 113.57 52.67 104.59 57.06 94.69 61.89 85.39 56.53 97.38 50.67 105.94 46.49 111.65 43.7 120.89 49.08 120.9 49.09"/><path class="cls-13" d="M124.66,20.12l-9.3,4.55c.78.67,1.56,1.37,2.35,2.09q2,1.81,3.8,3.68l9-4.41C128.7,24,126.73,22.05,124.66,20.12Zm11.77,12.93-8.79,4.3a69.44,69.44,0,0,1,4.47,6.25l8.66-4.23A75.17,75.17,0,0,0,136.43,33.05Zm8.4,14.24-8.63,4.22a18.9,18.9,0,0,1,1.35,5.56,4.3,4.3,0,0,1-.71,3.12c-1.2,1.3-5.25,1.54-11.59-.88a61.6,61.6,0,0,1-12.08-6.44,88.21,88.21,0,0,1-8-6q-1.65-1.4-3.29-2.89c-.94-.87-1.85-1.73-2.73-2.59-2.37-2.34-4.46-4.63-6.29-6.84a72.29,72.29,0,0,1-4.78-6.44,47.11,47.11,0,0,1-4.26-7.82c-2.08-4.92-2.25-8.45-1.07-9.73,2.14-2.34,12-.84,24.77,8l9.7-4.74A78.63,78.63,0,0,0,97.79,2.46C88-1.3,80.12-.74,75.72,4.05c-4.13,4.5-4.29,11.71-.49,20.43.24.56.5,1.13.78,1.7l.1.21a58.87,58.87,0,0,0,3.35,5.93c1.37,2.16,2.92,4.34,4.62,6.51q2.76,3.53,6,7,2.52,2.66,5.31,5.22l.43.4c2.46,2.23,5,4.32,7.51,6.24a77.59,77.59,0,0,0,18.47,10.6c9.83,3.77,17.67,3.2,22.06-1.59C147.87,62.35,148.18,55.54,144.83,47.29Z"/></g></g></svg>
