<svg id="Layer_1" data-name="Layer 1" xmlns="http://www.w3.org/2000/svg" viewBox="0 0 561.84 589.71"><defs><style>.cls-1{fill:#fff;}</style></defs><path d="M455.46,428.56q13.73,70.13,27.44,140.26l.88.44a7.28,7.28,0,0,1,.44-1.21c5.1-8.84,10.25-17.65,15.28-26.54a5.33,5.33,0,0,0,.44-3.35Q488.26,478.09,476.47,418q-4.07-20.76-8-41.54c-1.41-7.4-5.37-11.36-11.58-11.36-5.74,0-9.73,3.38-11.39,9.68q-6.16,23.44-12.33,46.89Q419.08,475.05,405,528.39c-.13.48-.32.94-.69,2.05-4.21-8.52-8.15-16.46-12.08-24.41-5.91-12-11.76-24-17.73-35.91-3.4-6.8-10.78-9-16.63-4.91a16,16,0,0,0-4.34,5.14q-7.65,13.45-15,27.1c-1.11,2.06-2.31,2.94-4.74,2.93-15-.11-30-.06-45,0-1.74,0-3-.09-3.61-2.22-14.18-48.14-9-94.21,17-137,19.42-31.9,49.34-50.55,85.26-59.29,36.23-8.81,71.19-5.25,104,13.42a121.8,121.8,0,0,1,37.78,34l2.84,3.85a17.59,17.59,0,0,0,1.63-1.73c20.86-29,48.94-46.65,84.16-51.89,49.61-7.38,92.87,6.33,128.83,41.6C763,357,772.52,377,779.17,398.37c10.18,32.76,10.2,65.6.49,98.5-.77,2.61-1.76,3.56-4.6,3.56q-90.66-.15-181.31-.06a6.07,6.07,0,0,1-5.19-2.53C579.08,486.36,569.45,475,560,463.52c-3.26-4-7.18-6-12.26-4.95-4.84,1-7.42,4.46-8.8,9.08-4.72,15.8-9.55,31.57-14.32,47.35-.27.9-.41,1.84-.7,3.19,7.81-1.53,15.18-1.15,22.69,2.3,2.76-9,5.46-17.89,8.33-27.32,1,1.12,1.84,1.91,2.56,2.77,6,7.16,12.1,14.25,17.94,21.54a14.35,14.35,0,0,0,12.12,5.68q88.86-.1,177.72-.07h4.51c-2.1,4.26-3.91,8.15-5.91,11.94-14.33,27.24-33.1,51.21-54.16,73.5-20.64,21.85-43.2,41.59-66.72,60.26-.93.74-1.83,1.51-3,2.48,2,3.52,3.94,7,5.92,10.43,5,8.66,10.07,17.26,15,26C672.31,728,661,752,638,756.18a33.45,33.45,0,0,1-5.84.37q-99.95,0-199.89,0c-26.09,0-41.43-26.5-28.5-49.16,6.24-10.94,12.59-21.82,18.88-32.73.59-1,1.14-2.08,1.86-3.39l-9.63-7.79c-32.45-26.26-62.83-54.6-88.26-87.91a277.2,277.2,0,0,1-30.27-49c-.46-1-.87-2-1.47-3.32,1.38-.07,2.51-.17,3.64-.17,14.35,0,28.7-.07,43,.06,5.79.05,10-2.1,12.68-7.35,2.83-5.48,6-10.8,9.23-16.68,2.46,5,4.72,9.46,6.94,14q13.23,26.88,26.47,53.75c2.78,5.63,6.58,7.81,12.17,7.3,4.8-.44,8.26-3.78,9.78-9.54Q436.44,498.09,454,431.52c.26-1,.56-2,.84-2.95A3.36,3.36,0,0,1,455.46,428.56ZM532.2,734.31q49.56,0,99.11,0c10.14,0,14.66-7.79,9.63-16.6-4.25-7.45-8.55-14.88-12.84-22.31L541.55,545.55c-4.61-8-13.81-8-18.46-.07q-6.74,11.53-13.41,23.11-43.18,74.79-86.32,149.59a13.11,13.11,0,0,0-1.82,5.14c-.59,6.41,4.15,11,11.23,11Q482.48,734.32,532.2,734.31ZM737.66,427.75l-.56-.09c0-1.41,0-2.82,0-4.23a17.4,17.4,0,0,0-.29-2.59q-9.91-53.56-61.39-71.4c-9.1-3.14-18.53-4.82-28.16-2.6-7.64,1.76-9.86,6.55-5.72,13.27a76,76,0,0,0,10.17,13.05c14.55,14.93,29.33,29.63,44.09,44.35,6,6,12,12,18.32,17.59a54.15,54.15,0,0,0,11.29,7.58c4.73,2.39,8.62.6,10.24-4.47C736.71,434.85,737,431.25,737.66,427.75Z" transform="translate(-277.5 -297.28)"/><path class="cls-1" d="M806,881.77c-3.81,1.07-5.91.3-6.35-2.11a3.64,3.64,0,0,1,3.37-4.31c2.57-.28,4.51,1.6,4.5,4.74a8.11,8.11,0,0,1-1.08,4.58,5.16,5.16,0,0,1-3.89,1.46c-.93,0-1.82-1.36-2.45-2.41C804.36,885.66,804.64,885.59,806,881.77Zm.81-2.78c-1.63-1.11-2.54-2.22-3.31-2.13s-1.6,1.3-2.39,2c.76.74,1.45,2,2.3,2.09S805.14,880,806.81,879Z" transform="translate(-277.5 -297.28)"/><path class="cls-1" d="M693.54,882.52c1.14.88,1.9,1.93,2.75,2,1.06.09,2.19-.61,3.29-1-.66-.67-1.32-1.36-2-2a1.19,1.19,0,0,0-.61-.19c-1.83-.3-3.75-.93-3.31-3.1a4.65,4.65,0,0,1,3-2.78c2.14-.58,3.92.33,4.07,3.25a7.35,7.35,0,0,0-2-1.42,6.08,6.08,0,0,0-2.75,0c-.29.06-.72,1.14-.6,1.26a8.66,8.66,0,0,0,1.95,1.37,4.36,4.36,0,0,0,1.24.38c2,.44,3.54,1.71,2.53,3.58-.66,1.23-2.73,2.16-4.28,2.34C694.94,886.44,693.4,885.33,693.54,882.52Z" transform="translate(-277.5 -297.28)"/><path class="cls-1" d="M283.87,875.21h6.47c-.22.47-.43,1.64-.83,1.71-4.17.72-3.15,3.94-3.42,6.61a15.94,15.94,0,0,1-.91,3.43c0,.1-.77-.05-1.31-.09Z" transform="translate(-277.5 -297.28)"/><path class="cls-1" d="M833.65,879c2.92-.89,4.94-.28,5.57,2.56a3.6,3.6,0,0,1-2.64,4.58c-2.36.66-4.2-.09-5-3,2.1.07,3.68,3.56,5.62.79a3.92,3.92,0,0,0,0-2.92,32.11,32.11,0,0,0-5.27-.58c.11-1.28.27-3,.44-4.88h6.45C837.87,878.2,833.61,874.69,833.65,879Z" transform="translate(-277.5 -297.28)"/><path class="cls-1" d="M659.07,882.61c1.14,2.57,1.14,2.57,5.11,1.27-.95,2.22-2.3,3-4.21,2.3-2.37-.88-2.84-2.82-2.49-5a3.5,3.5,0,0,1,3.84-3.19c2.15,0,3.11,1.38,3.19,4.39Z" transform="translate(-277.5 -297.28)"/><path class="cls-1" d="M781.58,883.29a53.07,53.07,0,0,0,5.53,1.16c.27,0,1.11-1.52.93-1.74a34.22,34.22,0,0,0-3.31-3.23L787,876.9l-4.86-.48c0-.27,0-.55.08-.82h7.7l-2.7,3.35c1.7,1.34,4,3,2,5.5-.9,1.12-3.14,1.57-4.76,1.54C783.55,886,782.67,884.38,781.58,883.29Z" transform="translate(-277.5 -297.28)"/><path class="cls-1" d="M731.22,878.27l-2.66,3.2,2.9,4.55-.63.62-3.87-4c-.38,1.43-.68,2.59-1,3.74l-.75-.16V875.38l1-.06c.17,1.7.33,3.4.53,5.44l4.07-3Z" transform="translate(-277.5 -297.28)"/><path class="cls-1" d="M790.39,886a34.45,34.45,0,0,0,3.7-3.74c1-1.43,2.8-3.86,2.34-4.52-1.86-2.65-3.25.37-4.82,1.26l-.7-.77c.88-.92,1.65-2.41,2.68-2.62a5.11,5.11,0,0,1,4.06,1c.68.66.7,2.76.17,3.76-.83,1.55-2.38,2.71-4,4.38l4.72.44c0,.28,0,.55-.05.83Z" transform="translate(-277.5 -297.28)"/><path class="cls-1" d="M648.64,875.1c1.19,2.87,2.39,5.74,3.73,9L656,875l1.24.57c-1.19,3.27-2.31,6.57-3.67,9.77a3.3,3.3,0,0,1-2.47,0c-1.35-3.21-2.48-6.51-3.67-9.78Z" transform="translate(-277.5 -297.28)"/><path class="cls-1" d="M752.56,882.3a3.93,3.93,0,0,1-4.18,4c-2.61-.29-3.75-1.93-3.61-4.49a3.69,3.69,0,0,1,3.92-3.87A4,4,0,0,1,752.56,882.3Zm-.67,0-3.33-3c-.77.9-2.2,1.86-2.13,2.7.09,1.05,1.41,2,2.2,3Z" transform="translate(-277.5 -297.28)"/><path class="cls-1" d="M687.34,882.15a4,4,0,0,1-4,4.18c-2.44-.15-3.71-1.57-3.76-4s1.14-4.16,3.77-4.36A4,4,0,0,1,687.34,882.15Zm-.66.14-3.33-3c-.76.9-2.19,1.86-2.13,2.7.09,1,1.4,2,2.19,3Z" transform="translate(-277.5 -297.28)"/><path class="cls-1" d="M711.08,886.35c-2.26-.29-3.53-1.76-3.48-4.35s1.32-3.88,3.76-4.06a4.15,4.15,0,0,1,4.14,4.17A4.3,4.3,0,0,1,711.08,886.35Zm3.56-4.12-3-2.89c-.84.93-2.34,1.85-2.35,2.78s1.45,1.91,2.27,2.86Z" transform="translate(-277.5 -297.28)"/><path class="cls-1" d="M673.11,880.45l-4.9-.52c-.07,1.41-.15,2.81-.22,4.22h5c-.24,1.23-1.43,2.18-3.28,2.17-2.29,0-3.59-1.31-3.81-3.61s.58-4.14,3-4.67A3.34,3.34,0,0,1,673.11,880.45Z" transform="translate(-277.5 -297.28)"/><path class="cls-1" d="M723.15,883.92c0,1.66-1.43,2.41-3.25,2.4a3.55,3.55,0,0,1-3.78-3.6c-.22-2.31.56-4.15,3-4.67,2.15-.47,3.68.43,4.35,3.07-2-.22-3.5-3.6-5.19-.75-.56,1,0,2.56.06,3.87Z" transform="translate(-277.5 -297.28)"/><path class="cls-1" d="M743.36,880.42l-4.82-.36-.21,4h5.16a3.19,3.19,0,0,1-3.81,2.27c-2.45-.33-3.44-2-3.35-4.41s1.24-3.76,3.52-3.9C741.81,877.87,743.3,878.66,743.36,880.42Z" transform="translate(-277.5 -297.28)"/><path class="cls-1" d="M815.9,886.08c1.23-3,2.47-6,3.8-9.26l-5.92-.3c0-.28,0-.57,0-.85h7.75a34.74,34.74,0,0,1-4.75,10.78Z" transform="translate(-277.5 -297.28)"/><path class="cls-1" d="M674.05,878.55l2-2.71,2.41,2.73a4.76,4.76,0,0,0,.06,7.21c-2.69.77-3.06.49-3.27-2.26-.13-1.67-.36-3.33-.55-5C674.5,878.54,674.27,878.55,674.05,878.55Z" transform="translate(-277.5 -297.28)"/><path class="cls-1" d="M702.66,877.86l1.43-1.94,2.53,2.69c-2.29,1.73-2.29,5.06.16,7.4-2.5.84-3.39-.11-3.48-2.46C703.24,881.89,702.94,880.24,702.66,877.86Z" transform="translate(-277.5 -297.28)"/><path class="cls-1" d="M812.38,874.66v11.59l-1.14.1-.43-8.53-2,.25-.36-.62Z" transform="translate(-277.5 -297.28)"/><path class="cls-1" d="M688.7,878.25h4c-1,1.32-2.14,2.38-2.62,3.69s-.3,2.93-.42,4.41l-1,0Z" transform="translate(-277.5 -297.28)"/><path d="M549.5,601.46c-1.35,21.28-2.64,41.44-3.91,61.6-.3,4.77-.56,9.54-.85,14.31a12.64,12.64,0,0,1-12.23,12.07,12.46,12.46,0,0,1-12.65-11.6q-2.48-39-4.73-78c-.51-9.17,6-16.52,15.13-17.82a17.13,17.13,0,0,1,18.66,12.85A36.25,36.25,0,0,1,549.5,601.46Z" transform="translate(-277.5 -297.28)"/><path d="M532.09,697.08a13.16,13.16,0,1,1-13,13.08A13,13,0,0,1,532.09,697.08Z" transform="translate(-277.5 -297.28)"/></svg>
